<?xml version="1.0" encoding="UTF-8"?>
<svg xmlns="http://www.w3.org/2000/svg" xmlns:xlink="http://www.w3.org/1999/xlink" width="256px" height="69px" viewBox="0 0 255 69" version="1.1">
<g id="surface1">
<path style=" stroke:none;fill-rule:nonzero;fill:rgb(84.705882%,12.156863%,14.901961%);fill-opacity:1;" d="M 35.0625 64.492188 C 31.226562 65.167969 27.324219 65.367188 23.285156 65.90625 L 10.96875 29.824219 L 10.96875 67.453125 C 7.132812 67.859375 3.632812 68.398438 0 68.9375 L 0 0 L 10.230469 0 L 24.226562 39.113281 L 24.226562 0 L 35.0625 0 Z M 56.261719 25.246094 C 60.4375 25.246094 66.828125 25.042969 70.664062 25.042969 L 70.664062 35.8125 C 65.886719 35.8125 60.300781 35.8125 56.261719 36.015625 L 56.261719 52.039062 C 62.589844 51.632812 68.914062 51.09375 75.308594 50.894531 L 75.308594 61.261719 L 45.496094 63.617188 L 45.496094 0 L 75.308594 0 L 75.308594 10.769531 L 56.261719 10.769531 Z M 115.351562 10.769531 L 104.179688 10.769531 L 104.179688 60.320312 C 100.546875 60.320312 96.910156 60.320312 93.414062 60.453125 L 93.414062 10.769531 L 82.242188 10.769531 L 82.242188 0 L 115.351562 0 Z M 132.851562 24.503906 L 147.589844 24.503906 L 147.589844 35.277344 L 132.851562 35.277344 L 132.851562 59.714844 L 122.285156 59.714844 L 122.285156 0 L 152.367188 0 L 152.367188 10.769531 L 132.851562 10.769531 Z M 169.863281 50.289062 C 175.988281 50.421875 182.179688 50.894531 188.171875 51.230469 L 188.171875 61.867188 C 178.546875 61.261719 168.921875 60.65625 159.097656 60.453125 L 159.097656 0 L 169.863281 0 Z M 197.257812 62.609375 C 200.6875 62.808594 204.324219 63.011719 207.820312 63.414062 L 207.820312 0 L 197.257812 0 Z M 255 0 L 241.335938 32.785156 L 255 68.9375 C 250.960938 68.398438 246.921875 67.65625 242.886719 66.984375 L 235.144531 47.058594 L 227.273438 65.367188 C 223.367188 64.695312 219.601562 64.492188 215.699219 63.953125 L 229.5625 32.378906 L 217.042969 0 L 228.617188 0 L 235.683594 18.109375 L 243.222656 0 Z M 255 0 "/>
</g>
</svg>
